<svg xmlns="http://www.w3.org/2000/svg" xmlns:xlink="http://www.w3.org/1999/xlink" width="200" zoomAndPan="magnify" viewBox="0 0 150 127.500001" height="170" preserveAspectRatio="xMidYMid meet" version="1.0"><defs><clipPath id="456b1aae8b"><path d="M 2.988281 13.992188 L 147.171875 13.992188 L 147.171875 113.351562 L 2.988281 113.351562 Z M 2.988281 13.992188 " clip-rule="nonzero"/></clipPath><clipPath id="6fa056e5d8"><path d="M 54 67 L 58 67 L 58 74 L 54 74 Z M 54 67 " clip-rule="nonzero"/></clipPath><clipPath id="090b5ddf26"><path d="M 54.816406 67.519531 L 58.5 68.144531 L 57.625 73.300781 L 53.945312 72.675781 Z M 54.816406 67.519531 " clip-rule="nonzero"/></clipPath><clipPath id="a8f93bca09"><path d="M 54.816406 67.519531 L 58.5 68.144531 L 57.625 73.300781 L 53.945312 72.675781 Z M 54.816406 67.519531 " clip-rule="nonzero"/></clipPath><clipPath id="eac1dfa05e"><path d="M 93 67 L 97 67 L 97 74 L 93 74 Z M 93 67 " clip-rule="nonzero"/></clipPath><clipPath id="06369a632e"><path d="M 92.203125 68.441406 L 95.773438 67.34375 L 97.308594 72.339844 L 93.738281 73.4375 Z M 92.203125 68.441406 " clip-rule="nonzero"/></clipPath><clipPath id="bb641e0877"><path d="M 92.203125 68.441406 L 95.773438 67.34375 L 97.308594 72.339844 L 93.738281 73.4375 Z M 92.203125 68.441406 " clip-rule="nonzero"/></clipPath><clipPath id="046b0c0bea"><path d="M 12.992188 83.722656 L 47.964844 83.722656 L 47.964844 114.28125 L 12.992188 114.28125 Z M 12.992188 83.722656 " clip-rule="nonzero"/></clipPath></defs><g clip-path="url(#456b1aae8b)"><path fill="#ffffff" d="M 75 13.992188 C 58.507812 13.992188 44.164062 25.453125 40.191406 41.207031 C 30.484375 42.648438 22.785156 50.382812 21.273438 60.4375 C 10.515625 64.09375 2.992188 74.363281 2.992188 86 C 2.992188 100.871094 15.121094 113.003906 29.992188 113.003906 L 120.003906 113.003906 C 134.875 113.003906 147.003906 100.871094 147.003906 86 C 147.003906 77.914062 143.417969 70.355469 137.230469 65.253906 C 137.757812 63.179688 138.003906 61.070312 138.003906 58.996094 C 138.003906 42.613281 123.519531 29.25 106.429688 32.417969 C 100.101562 21.128906 88.183594 13.992188 75 13.992188 Z M 75 22.992188 C 85.863281 22.992188 95.636719 29.460938 99.890625 39.449219 L 101.472656 43.316406 L 105.410156 41.980469 C 107.449219 41.3125 109.277344 40.996094 111.003906 40.996094 C 120.917969 40.996094 129.003906 49.082031 129.003906 58.996094 C 129.003906 61.105469 128.582031 63.25 127.738281 65.394531 L 126.472656 68.84375 L 129.566406 70.8125 C 134.839844 74.152344 138.003906 79.8125 138.003906 86 C 138.003906 95.914062 129.917969 104 120.003906 104 L 29.992188 104 C 20.078125 104 11.992188 95.914062 11.992188 86 C 11.992188 77.457031 18.074219 70.039062 26.40625 68.351562 L 30.097656 67.292969 L 29.992188 63.496094 C 29.992188 56.042969 36.042969 49.996094 43.039062 49.960938 L 43.953125 50.066406 L 47.855469 50.066406 L 48.417969 46.164062 C 50.28125 32.945312 61.707031 22.992188 75 22.992188 Z M 61.496094 58.996094 C 59 58.996094 56.996094 61 56.996094 63.496094 C 56.996094 65.992188 59 68 61.496094 68 C 63.992188 68 65.996094 65.992188 65.996094 63.496094 C 65.996094 61 63.992188 58.996094 61.496094 58.996094 Z M 88.5 58.996094 C 86.003906 58.996094 84 61 84 63.496094 C 84 65.992188 86.003906 68 88.5 68 C 90.996094 68 93 65.992188 93 63.496094 C 93 61 90.996094 58.996094 88.5 58.996094 Z M 75 77 C 59.210938 77 49.261719 87.40625 49.261719 87.40625 C 47.996094 88.53125 47.46875 90.253906 47.925781 91.871094 C 48.347656 93.523438 49.648438 94.789062 51.300781 95.140625 C 52.953125 95.492188 54.640625 94.894531 55.730469 93.59375 C 55.730469 93.59375 63.113281 86 75 86 C 86.882812 86 94.265625 93.59375 94.265625 93.59375 C 95.355469 94.894531 97.042969 95.492188 98.695312 95.140625 C 100.347656 94.789062 101.648438 93.523438 102.070312 91.871094 C 102.527344 90.253906 102 88.53125 100.734375 87.40625 C 100.734375 87.40625 90.785156 77 75 77 Z M 75 77 " fill-opacity="1" fill-rule="nonzero"/></g><g clip-path="url(#6fa056e5d8)"><g clip-path="url(#090b5ddf26)"><g clip-path="url(#a8f93bca09)"><path fill="#ffffff" d="M 56.316406 68.035156 C 56.117188 68.265625 54.347656 70.292969 54.21875 71.199219 C 54.078125 72.175781 54.757812 73.085938 55.734375 73.226562 C 56.714844 73.367188 57.625 72.6875 57.765625 71.710938 C 57.792969 71.511719 57.761719 71.238281 57.695312 70.933594 C 57.675781 70.847656 57.652344 70.753906 57.628906 70.664062 C 57.503906 70.203125 57.320312 69.691406 57.144531 69.246094 C 56.914062 68.664062 56.695312 68.195312 56.644531 68.082031 L 56.515625 67.808594 L 56.316406 68.035156 " fill-opacity="1" fill-rule="nonzero"/></g></g></g><g clip-path="url(#eac1dfa05e)"><g clip-path="url(#06369a632e)"><g clip-path="url(#bb641e0877)"><path fill="#ffffff" d="M 93.773438 68.226562 C 93.695312 68.519531 93.03125 71.128906 93.320312 71.996094 C 93.632812 72.933594 94.652344 73.4375 95.589844 73.125 C 96.523438 72.8125 97.03125 71.792969 96.71875 70.855469 C 96.652344 70.667969 96.503906 70.4375 96.304688 70.195312 C 96.25 70.125 96.1875 70.054688 96.125 69.984375 C 95.804688 69.628906 95.410156 69.253906 95.054688 68.933594 C 94.589844 68.519531 94.183594 68.199219 94.085938 68.121094 L 93.847656 67.933594 L 93.773438 68.226562 " fill-opacity="1" fill-rule="nonzero"/></g></g></g><g clip-path="url(#046b0c0bea)"><path fill="#ffffff" d="M 29.601562 84.230469 L 13.128906 112.757812 C 12.742188 113.433594 13.226562 114.28125 14.007812 114.28125 L 46.949219 114.28125 C 47.730469 114.28125 48.21875 113.433594 47.828125 112.757812 L 31.359375 84.230469 C 30.96875 83.554688 29.992188 83.554688 29.601562 84.230469 " fill-opacity="1" fill-rule="nonzero"/></g><path fill="#f9f9f9" d="M 29.691406 86.210938 L 14.878906 111.863281 C 14.53125 112.46875 14.96875 113.230469 15.671875 113.230469 L 45.289062 113.230469 C 45.992188 113.230469 46.429688 112.46875 46.078125 111.863281 L 31.269531 86.210938 C 30.917969 85.601562 30.039062 85.601562 29.691406 86.210938 " fill-opacity="1" fill-rule="nonzero"/><path fill="#000000" d="M 30.480469 84.113281 C 30.253906 84.113281 30.050781 84.230469 29.9375 84.425781 L 13.46875 112.953125 C 13.355469 113.148438 13.355469 113.382812 13.46875 113.578125 C 13.582031 113.773438 13.78125 113.890625 14.007812 113.890625 L 46.949219 113.890625 C 47.175781 113.890625 47.378906 113.773438 47.492188 113.578125 C 47.605469 113.382812 47.605469 113.148438 47.492188 112.953125 L 31.019531 84.425781 C 30.90625 84.230469 30.707031 84.113281 30.480469 84.113281 Z M 30.480469 86.167969 L 45.710938 112.550781 L 15.25 112.550781 L 30.480469 86.167969 " fill-opacity="1" fill-rule="nonzero"/><path fill="#000000" d="M 31.824219 110.132812 L 29.136719 110.132812 L 29.136719 107.445312 L 31.824219 107.445312 Z M 29.085938 99.785156 L 29.085938 92.382812 L 31.875 92.382812 L 31.875 99.785156 L 31.519531 106.199219 L 29.441406 106.199219 L 29.085938 99.785156 " fill-opacity="1" fill-rule="nonzero"/></svg>